<?xml version="1.0" standalone="no"?><svg xmlns="http://www.w3.org/2000/svg" viewBox="0 0 1440 320"><path fill="rgb(182, 179, 179)" fill-opacity="1" d="M0,32L21.8,42.7C43.6,53,87,75,131,106.7C174.5,139,218,181,262,165.3C305.5,149,349,75,393,90.7C436.4,107,480,213,524,224C567.3,235,611,149,655,144C698.2,139,742,213,785,224C829.1,235,873,181,916,138.7C960,96,1004,64,1047,80C1090.9,96,1135,160,1178,181.3C1221.8,203,1265,181,1309,160C1352.7,139,1396,117,1418,106.7L1440,96L1440,320L1418.2,320C1396.4,320,1353,320,1309,320C1265.5,320,1222,320,1178,320C1134.5,320,1091,320,1047,320C1003.6,320,960,320,916,320C872.7,320,829,320,785,320C741.8,320,698,320,655,320C610.9,320,567,320,524,320C480,320,436,320,393,320C349.1,320,305,320,262,320C218.2,320,175,320,131,320C87.3,320,44,320,22,320L0,320Z"></path></svg>